# xmcd
#
# Track frame offsets:
#	150
#	15300
#	32400
#	48225
#	67036
#	84436
#	100786
#	114280
#	133105
#
# Disc length: 2005
#
# Revision: 1
# Processed by: cddbd v1.5.1PL0 Copyright (c) Steve Scherf et al.
# Submitted via: VisiTrax 2.9.10.228 - For more info visit www.synapsa.com
# Normalized: r0:DSETVAR1
#
DISCID=6407d309
DTITLE=Various Artist - Hits Monthly Nashville PHN0102
DYEAR=1900
DGENRE=Karaoke
TTITLE0=Warren Brothers, The - Move On
TTITLE1=Diamond Rio - One More Day
TTITLE2=SheDaisy - Lucky 4 You
TTITLE3=McNeal, Jamie - There Is No Arizona
TTITLE4=Rushlow, Tim - She Misses Him
TTITLE5=Tillis, Pam - Please
TTITLE6=Yoakam, Dwight - What Do You Know About Love
TTITLE7=Tennison, Chalee - Go Back
TTITLE8=Henley, Don - For My Wedding
EXTD=
EXTT0=
EXTT1=
EXTT2=
EXTT3=
EXTT4=
EXTT5=
EXTT6=
EXTT7=
EXTT8=
PLAYORDER=
